<svg width="32" height="32" viewBox="0 0 32 32" fill="none" xmlns="http://www.w3.org/2000/svg">
<path d="M18.6842 4C17.9232 4 17.1905 4.28926 16.6348 4.80919L4.45357 16.2045C3.1118 17.4597 3.07652 19.5768 4.37573 20.876L10.7017 27.2019C11.8757 28.376 13.7245 28.464 14.9998 27.466V22C14.9998 20.1076 16.3139 18.5221 18.0794 18.1064C18.5007 15.7714 20.5434 14 22.9998 14C24.5077 14 25.8598 14.6676 26.7765 15.7233L27.1211 15.3787C27.6837 14.8161 27.9998 14.053 27.9998 13.2574V6.5C27.9998 5.11929 26.8805 4 25.4998 4H18.6842Z" fill="#F1F1F1"/>
</svg>
5C3.58712 15.4497 3.38459 15.1467 3.24641 14.8131C3.10823 14.4795 3.03711 14.122 3.03711 13.761C3.03711 13.4 3.10823 13.0425 3.24641 12.7089C3.38459 12.3753 3.58712 12.0723 3.84244 11.817L12.3424 3.307C12.5967 3.05052 12.8994 2.84711 13.233 2.70857C13.5665 2.57004 13.9243 2.49914 14.2854 2.5H19.7504ZM14.2854 2C13.8583 2 13.4353 2.08417 13.0406 2.24769C12.8514 2.32608 12.6705 2.42198 12.5002 2.53387C13.0263 2.18819 13.6464 2 14.2854 2ZM21.6035 2.97381C21.8021 3.26163 21.9353 3.59799 21.9819 3.96147C21.936 3.60636 21.806 3.26778 21.6035 2.97381ZM21.079 2.43412C20.7025 2.15861 20.247 2.00532 19.7752 2.00014C20.2627 2.00544 20.7129 2.16576 21.079 2.43412Z" fill="#F1F1F1"/>
</svg>
